<svg width="24" height="24" viewBox="0 0 24 24" fill="none" xmlns="http://www.w3.org/2000/svg">
<circle cx="12" cy="12" r="12" fill="#007E85"/>
<path d="M14.8194 16.3763H9.18047C8.40125 16.3763 7.76465 15.7398 7.76465 14.9605V9.32158C7.76465 8.54236 8.40125 7.90576 9.18047 7.90576H14.8194C15.5986 7.90576 16.2352 8.54236 16.2352 9.32158V14.9605C16.2352 15.7432 15.6021 16.3763 14.8194 16.3763Z" fill="#BFD2F8"/>
<path d="M12.0018 14.3171C11.4209 14.3171 10.8747 14.091 10.4642 13.6805C10.0538 13.27 9.82764 12.7239 9.82764 12.1429C9.82764 11.562 10.0538 11.0158 10.4642 10.6053C10.8747 10.1949 11.4209 9.96875 12.0018 9.96875C12.5828 9.96875 13.1289 10.1949 13.5394 10.6053C13.9499 11.0158 14.176 11.562 14.176 12.1429C14.176 12.7239 13.9499 13.27 13.5394 13.6805C13.1254 14.091 12.5828 14.3171 12.0018 14.3171ZM12.0018 10.4314C11.0591 10.4314 10.2903 11.1967 10.2903 12.1429C10.2903 13.0856 11.0556 13.8544 12.0018 13.8544C12.9445 13.8544 13.7133 13.0891 13.7133 12.1429C13.7098 11.2002 12.9445 10.4314 12.0018 10.4314Z" fill="#007E85"/>
<path d="M14.5996 9.89692C14.8301 9.89692 15.017 9.71002 15.017 9.47946C15.017 9.24891 14.8301 9.06201 14.5996 9.06201C14.369 9.06201 14.1821 9.24891 14.1821 9.47946C14.1821 9.71002 14.369 9.89692 14.5996 9.89692Z" fill="#007E85"/>
</svg>
