<svg width="74" height="64" viewBox="0 0 74 64" fill="none" xmlns="http://www.w3.org/2000/svg">
<path d="M3.75194 60.8823V52.3003H0.391938V51.0823H8.49794V52.3003H5.13794V60.8823H3.75194ZM13.905 60.9943C12.617 60.9943 11.6043 60.6257 10.867 59.8883C10.1297 59.151 9.761 58.073 9.761 56.6543V51.0823H11.161V56.5983C11.161 57.6903 11.399 58.4883 11.875 58.9923C12.3603 59.4963 13.0417 59.7483 13.919 59.7483C14.8057 59.7483 15.487 59.4963 15.963 58.9923C16.4483 58.4883 16.691 57.6903 16.691 56.5983V51.0823H18.049V56.6543C18.049 58.073 17.6803 59.151 16.943 59.8883C16.215 60.6257 15.2023 60.9943 13.905 60.9943ZM20.9192 60.8823V51.0823H24.7412C25.5999 51.0823 26.3326 51.2177 26.9392 51.4883C27.5459 51.759 28.0126 52.151 28.3392 52.6643C28.6659 53.1777 28.8292 53.789 28.8292 54.4983C28.8292 55.2077 28.6659 55.819 28.3392 56.3323C28.0126 56.8363 27.5459 57.2237 26.9392 57.4943C26.3326 57.765 25.5999 57.9003 24.7412 57.9003H21.6892L22.3192 57.2563V60.8823H20.9192ZM27.4712 60.8823L24.9792 57.3263H26.4772L28.9972 60.8823H27.4712ZM22.3192 57.3963L21.6892 56.7103H24.6992C25.5952 56.7103 26.2719 56.519 26.7292 56.1363C27.1959 55.7443 27.4292 55.1983 27.4292 54.4983C27.4292 53.7983 27.1959 53.257 26.7292 52.8743C26.2719 52.4917 25.5952 52.3003 24.6992 52.3003H21.6892L22.3192 51.6003V57.3963ZM32.3231 58.5163L32.2531 56.8083L37.8111 51.0823H39.4071L35.1091 55.6183L34.3251 56.4863L32.3231 58.5163ZM31.0911 60.8823V51.0823H32.4911V60.8823H31.0911ZM38.0351 60.8823L34.0171 56.2063L34.9551 55.1703L39.6731 60.8823H38.0351ZM41.1536 60.8823V51.0823H42.3016L46.6976 58.4883H46.0816L50.4216 51.0823H51.5696L51.5836 60.8823H50.2396L50.2256 53.1963H50.5476L46.6836 59.6923H46.0396L42.1476 53.1963H42.4976V60.8823H41.1536ZM55.7987 55.3103H60.8387V56.5003H55.7987V55.3103ZM55.9247 59.6643H61.6367V60.8823H54.5247V51.0823H61.4407V52.3003H55.9247V59.6643ZM63.9036 60.8823V51.0823H68.0336C69.0789 51.0823 69.9983 51.2877 70.7916 51.6983C71.5943 52.109 72.2149 52.683 72.6536 53.4203C73.1016 54.1577 73.3256 55.0117 73.3256 55.9823C73.3256 56.953 73.1016 57.807 72.6536 58.5443C72.2149 59.2817 71.5943 59.8557 70.7916 60.2663C69.9983 60.677 69.0789 60.8823 68.0336 60.8823H63.9036ZM65.3036 59.6643H67.9496C68.7616 59.6643 69.4616 59.5103 70.0496 59.2023C70.6469 58.8943 71.1089 58.465 71.4356 57.9143C71.7623 57.3543 71.9256 56.7103 71.9256 55.9823C71.9256 55.245 71.7623 54.601 71.4356 54.0503C71.1089 53.4997 70.6469 53.0703 70.0496 52.7623C69.4616 52.4543 68.7616 52.3003 67.9496 52.3003H65.3036V59.6643Z" fill="#007E85"/>
<path d="M44.9835 39.2353V34.6731L50.8492 31.1972V18.3797L39.3351 25.1143V32.0662H35.642V25.1143L23.4762 18.3797V31.6317L29.1246 34.6731V38.8008L20.0002 33.5869V11.8623L37.1627 21.6384L54.7596 11.8623V33.5869L44.9835 39.2353Z" fill="#007E85" stroke="#007E85"/>
<path d="M51.2837 8.82086L47.3732 11.6451L39.3351 6.6484V13.383H35.4247V6.6484L26.5176 11.6451L22.39 9.47259L37.5972 1L51.2837 8.82086Z" fill="#007E85" stroke="#007E85"/>
</svg>
