<svg width="24" height="24" viewBox="0 0 24 24" fill="none" xmlns="http://www.w3.org/2000/svg">
<circle cx="12" cy="12" r="12" fill="#007E85"/>
<path d="M16.6048 10.0429C16.3537 9.48804 15.9932 8.98987 15.5356 8.56056C15.0779 8.13529 14.5473 7.79913 13.956 7.56422C13.3444 7.32121 12.6964 7.19971 12.0281 7.19971C11.3599 7.19971 10.7118 7.32121 10.1003 7.56422C9.50893 7.79913 8.97837 8.13124 8.5207 8.56056C8.06303 8.98987 7.70257 9.48804 7.45147 10.0429C7.19226 10.618 7.05859 11.2337 7.05859 11.8655C7.05859 12.9712 7.4717 14.0323 8.22908 14.8747L7.82407 17.0821L9.97875 16.1222C10.6227 16.3976 11.3072 16.5353 12.0241 16.5353C12.6923 16.5353 13.3404 16.4138 13.9519 16.1708C14.5433 15.9359 15.0738 15.6038 15.5315 15.1744C15.9892 14.7451 16.3496 14.247 16.6007 13.6921C16.8599 13.117 16.9936 12.5013 16.9936 11.8695C16.9977 11.2337 16.864 10.6221 16.6048 10.0429Z" fill="#BFD2F8"/>
<path d="M14.045 12.7971C13.8344 12.6918 13.6805 12.627 13.5712 12.5865C13.5023 12.5622 13.3403 12.4893 13.2836 12.5339C13.1054 12.6797 12.915 13.0928 12.7125 13.1697C12.2103 13.0725 11.7445 12.7283 11.38 12.3759C11.218 12.222 10.9183 11.7846 10.8535 11.6671C10.8414 11.5456 11.0601 11.3836 11.1087 11.2905C11.3598 11.007 11.1694 10.8287 11.137 10.7113C11.0803 10.5898 10.9831 10.3711 10.8981 10.1929C10.8252 10.0754 10.8089 9.90126 10.6793 9.83646C10.1285 9.55295 9.81262 10.12 9.68302 10.4156C8.90134 12.2989 13.5995 15.8833 14.5553 13.4127C14.6039 13.1981 14.5837 13.1171 14.5108 13.0199C14.365 12.9186 14.1949 12.8741 14.045 12.7971Z" fill="#007E85"/>
</svg>
