<svg width="575" height="501" viewBox="0 0 575 501" fill="none" xmlns="http://www.w3.org/2000/svg">
<path d="M360.097 111.141H183.383V269.517H273.407V185.05H355.652C381.585 185.05 403.998 190.051 422.892 200.054C442.157 209.686 456.976 223.579 467.349 241.732C478.092 259.515 483.464 280.817 483.464 305.638C483.464 330.089 478.092 351.391 467.349 369.545C456.976 387.698 442.157 401.775 422.892 411.778C403.998 421.41 381.585 426.227 355.652 426.227H273.407H183.383V500.135H360.097C402.331 500.135 439.563 492.17 471.794 476.24C504.025 459.939 529.217 437.341 547.37 408.444C565.523 379.177 574.6 344.908 574.6 305.638C574.6 265.998 565.523 231.729 547.37 202.833C529.217 173.936 504.025 151.523 471.794 135.592C439.563 119.292 402.331 111.141 360.097 111.141Z" fill="white"/>
<path d="M213.284 388.994H388.994V230.618H299.481V315.085H217.704C191.918 315.085 169.632 310.084 150.846 300.081C131.691 290.449 116.956 276.556 106.642 258.403C95.9592 240.621 90.6179 219.319 90.6179 194.497C90.6179 170.046 95.9592 148.744 106.642 130.591C116.956 112.438 131.691 98.3599 150.846 88.3572C169.632 78.725 191.918 73.9088 217.704 73.9088H299.481H388.994V-3.05176e-05H213.284C171.29 -3.05176e-05 134.269 7.96509 102.221 23.8953C70.1736 40.196 45.1248 62.7947 27.0748 91.6914C9.0249 120.959 -6.10352e-05 155.227 -6.10352e-05 194.497C-6.10352e-05 234.137 9.0249 268.406 27.0748 297.303C45.1248 326.199 70.1736 348.613 102.221 364.543C134.269 380.844 171.29 388.994 213.284 388.994Z" fill="white"/>
</svg>
