<svg width="24" height="24" viewBox="0 0 24 24" fill="none" xmlns="http://www.w3.org/2000/svg">
  <circle cx="12" cy="12" r="12" fill="#BFD2F8" />
  <path
    d="M14.8194 16.3766H9.18047C8.40125 16.3766 7.76465 15.74 7.76465 14.9608V9.32183C7.76465 8.5426 8.40125 7.90601 9.18047 7.90601H14.8194C15.5986 7.90601 16.2352 8.5426 16.2352 9.32183V14.9608C16.2352 15.7435 15.6021 16.3766 14.8194 16.3766Z"
    fill="#007E85" />
  <path
    d="M12.0017 14.3171C11.4207 14.3171 10.8746 14.091 10.4641 13.6805C10.0536 13.27 9.82748 12.7239 9.82748 12.1429C9.82748 11.562 10.0536 11.0158 10.4641 10.6053C10.8746 10.1949 11.4207 9.96875 12.0017 9.96875C12.5826 9.96875 13.1288 10.1949 13.5392 10.6053C13.9497 11.0158 14.1758 11.562 14.1758 12.1429C14.1758 12.7239 13.9497 13.27 13.5392 13.6805C13.1253 14.091 12.5826 14.3171 12.0017 14.3171ZM12.0017 10.4314C11.0589 10.4314 10.2901 11.1967 10.2901 12.1429C10.2901 13.0856 11.0555 13.8544 12.0017 13.8544C12.9444 13.8544 13.7132 13.0891 13.7132 12.1429C13.7097 11.2002 12.9444 10.4314 12.0017 10.4314Z"
    fill="#BFD2F8" />
  <path
    d="M14.5997 9.89716C14.8303 9.89716 15.0172 9.71026 15.0172 9.47971C15.0172 9.24916 14.8303 9.06226 14.5997 9.06226C14.3692 9.06226 14.1823 9.24916 14.1823 9.47971C14.1823 9.71026 14.3692 9.89716 14.5997 9.89716Z"
    fill="#BFD2F8" />
</svg>
