<svg width="41" height="39" viewBox="0 0 41 39" fill="none" xmlns="http://www.w3.org/2000/svg">
<path d="M24.1459 33.126C24.7274 32.7902 25.1502 32.2344 25.3211 31.5808C25.492 30.9272 25.3972 30.2294 25.0574 29.6408L23.7761 27.4216C23.4363 26.8331 22.8794 26.402 22.2279 26.2232C21.5764 26.0445 20.8837 26.1327 20.3021 26.4684C15.9167 29.0003 13.3542 24.562 12.0729 22.3428C10.7917 20.1236 8.22919 15.6852 12.6146 13.1533C13.1962 12.8175 13.6189 12.2617 13.7899 11.6081C13.9608 10.9545 13.8659 10.2567 13.5261 9.66811L12.2449 7.44892C11.905 6.86035 11.3481 6.42927 10.6966 6.25051C10.0451 6.07174 9.35243 6.15994 8.77089 6.4957C3.28908 9.66062 1.28125 13.7788 7.6875 24.8747C14.0938 35.9707 18.6641 36.2909 24.1459 33.126Z" stroke="#007E85" stroke-width="2" stroke-linecap="round" stroke-linejoin="round"/>
<path d="M35.8156 23.9621C36.9804 19.4989 36.3314 14.7346 34.0113 10.716C31.6911 6.69743 27.8896 3.75324 23.442 2.53032M29.1022 22.12C29.4492 20.7945 29.5325 19.4104 29.3472 18.0469C29.162 16.6835 28.712 15.3672 28.0227 14.1735C27.3335 12.9798 26.4187 11.9319 25.3305 11.0897C24.2423 10.2476 23.002 9.62766 21.6806 9.26539M22.4248 20.2645C22.6577 19.3714 22.5278 18.4181 22.0635 17.6141C21.5993 16.81 20.8387 16.2208 19.9488 15.9759" stroke="#159EEC" stroke-width="2" stroke-linecap="round" stroke-linejoin="round"/>
</svg>
