<svg width="78" height="78" viewBox="0 0 78 78" fill="none" xmlns="http://www.w3.org/2000/svg">
<rect x="0.603882" width="77.3585" height="77.3585" rx="38.6792" fill="#3FB2B2"/>
<path d="M39.2831 38.6792C41.4813 38.6792 43.5895 37.806 45.1439 36.2516C46.6983 34.6972 47.5715 32.5891 47.5715 30.3908C47.5715 28.1926 46.6983 26.0844 45.1439 24.53C43.5895 22.9757 41.4813 22.1024 39.2831 22.1024C37.0849 22.1024 34.9767 22.9757 33.4223 24.53C31.8679 26.0844 30.9947 28.1926 30.9947 30.3908C30.9947 32.5891 31.8679 34.6972 33.4223 36.2516C34.9767 37.806 37.0849 38.6792 39.2831 38.6792ZM44.8087 30.3908C44.8087 31.8563 44.2266 33.2618 43.1903 34.298C42.1541 35.3343 40.7486 35.9164 39.2831 35.9164C37.8176 35.9164 36.4122 35.3343 35.3759 34.298C34.3397 33.2618 33.7575 31.8563 33.7575 30.3908C33.7575 28.9253 34.3397 27.5199 35.3759 26.4836C36.4122 25.4474 37.8176 24.8652 39.2831 24.8652C40.7486 24.8652 42.1541 25.4474 43.1903 26.4836C44.2266 27.5199 44.8087 28.9253 44.8087 30.3908ZM55.8599 52.4933C55.8599 55.2561 53.0971 55.2561 53.0971 55.2561H25.4691C25.4691 55.2561 22.7063 55.2561 22.7063 52.4933C22.7063 49.7304 25.4691 41.442 39.2831 41.442C53.0971 41.442 55.8599 49.7304 55.8599 52.4933ZM53.0971 52.4822C53.0944 51.8026 52.6717 49.7581 50.7985 47.8849C48.9971 46.0835 45.6072 44.2048 39.2831 44.2048C32.9563 44.2048 29.5691 46.0835 27.7678 47.8849C25.8946 49.7581 25.4746 51.8026 25.4691 52.4822H53.0971Z" fill="white"/>
</svg>
