<svg width="24" height="24" viewBox="0 0 24 24" fill="none" xmlns="http://www.w3.org/2000/svg">
<circle cx="12" cy="12" r="12" fill="#BFD2F8"/>
<path d="M16.605 10.0432C16.3539 9.48828 15.9934 8.99011 15.5357 8.5608C15.0781 8.13553 14.5475 7.79937 13.9562 7.56446C13.3446 7.32146 12.6966 7.19995 12.0283 7.19995C11.36 7.19995 10.712 7.32146 10.1004 7.56446C9.50912 7.79937 8.97855 8.13148 8.52088 8.5608C8.06322 8.99011 7.70276 9.48828 7.45165 10.0432C7.19244 10.6183 7.05878 11.2339 7.05878 11.8657C7.05878 12.9714 7.47189 14.0325 8.22926 14.875L7.82425 17.0823L9.97893 16.1224C10.6229 16.3978 11.3074 16.5355 12.0243 16.5355C12.6925 16.5355 13.3406 16.414 13.9521 16.171C14.5435 15.9361 15.074 15.604 15.5317 15.1747C15.9894 14.7454 16.3498 14.2472 16.6009 13.6923C16.8601 13.1172 16.9938 12.5016 16.9938 11.8698C16.9978 11.2339 16.8642 10.6223 16.605 10.0432Z" fill="#007E85"/>
<path d="M14.0452 12.7974C13.8346 12.6921 13.6807 12.6273 13.5713 12.5868C13.5025 12.5625 13.3405 12.4896 13.2838 12.5341C13.1056 12.6799 12.9152 13.093 12.7127 13.17C12.2105 13.0728 11.7447 12.7285 11.3802 12.3761C11.2182 12.2222 10.9185 11.7848 10.8537 11.6674C10.8415 11.5459 11.0602 11.3839 11.1088 11.2907C11.36 11.0072 11.1696 10.829 11.1372 10.7115C11.0805 10.59 10.9833 10.3713 10.8982 10.1931C10.8253 10.0757 10.8091 9.90151 10.6795 9.83671C10.1287 9.5532 9.81281 10.1202 9.6832 10.4159C8.90153 12.2992 13.5997 15.8836 14.5555 13.413C14.6041 13.1983 14.5839 13.1173 14.511 13.0201C14.3652 12.9189 14.1951 12.8743 14.0452 12.7974Z" fill="#BFD2F8"/>
</svg>
