<svg width="38" height="38" viewBox="0 0 38 38" fill="none" xmlns="http://www.w3.org/2000/svg">
<path d="M13.1261 11.5222C13.2256 11.4225 13.3438 11.3433 13.474 11.2893C13.6041 11.2353 13.7436 11.2075 13.8845 11.2075C14.0254 11.2075 14.1649 11.2353 14.2951 11.2893C14.4252 11.3433 14.5434 11.4225 14.6429 11.5222L20.3117 17.1931L25.9804 11.5222C26.08 11.4226 26.1983 11.3436 26.3284 11.2897C26.4585 11.2358 26.598 11.2081 26.7389 11.2081C26.8797 11.2081 27.0192 11.2358 27.1493 11.2897C27.2794 11.3436 27.3977 11.4226 27.4973 11.5222C27.5969 11.6218 27.6759 11.7401 27.7298 11.8702C27.7837 12.0003 27.8114 12.1398 27.8114 12.2806C27.8114 12.4215 27.7837 12.5609 27.7298 12.6911C27.6759 12.8212 27.5969 12.9394 27.4973 13.039L21.8264 18.7078L27.4973 24.3766C27.5969 24.4762 27.6759 24.5944 27.7298 24.7245C27.7837 24.8547 27.8114 24.9941 27.8114 25.135C27.8114 25.2758 27.7837 25.4153 27.7298 25.5454C27.6759 25.6755 27.5969 25.7938 27.4973 25.8934C27.3977 25.993 27.2794 26.072 27.1493 26.1259C27.0192 26.1798 26.8797 26.2075 26.7389 26.2075C26.598 26.2075 26.4585 26.1798 26.3284 26.1259C26.1983 26.072 26.08 25.993 25.9804 25.8934L20.3117 20.2225L14.6429 25.8934C14.5433 25.993 14.4251 26.072 14.295 26.1259C14.1648 26.1798 14.0254 26.2075 13.8845 26.2075C13.7437 26.2075 13.6042 26.1798 13.4741 26.1259C13.3439 26.072 13.2257 25.993 13.1261 25.8934C13.0265 25.7938 12.9475 25.6755 12.8936 25.5454C12.8397 25.4153 12.812 25.2758 12.812 25.135C12.812 24.9941 12.8397 24.8547 12.8936 24.7245C12.9475 24.5944 13.0265 24.4762 13.1261 24.3766L18.797 18.7078L13.1261 13.039C13.0263 12.9395 12.9472 12.8213 12.8932 12.6912C12.8392 12.561 12.8114 12.4215 12.8114 12.2806C12.8114 12.1397 12.8392 12.0002 12.8932 11.8701C12.9472 11.7399 13.0263 11.6217 13.1261 11.5222Z" fill="white"/>
</svg>
